<mxfile host="Electron" modified="2025-01-05T15:37:00.521Z" agent="Mozilla/5.0 (Windows NT 10.0; Win64; x64) AppleWebKit/537.36 (KHTML, like Gecko) draw.io/22.0.2 Chrome/114.0.5735.289 Electron/25.8.4 Safari/537.36" etag="IjCVUj-gWjdiZGzTETv_" version="22.0.2" type="device">
  <diagram name="第 1 页" id="_vUdAH-Glu1vHb8OSYQj">
    <mxGraphModel dx="1674" dy="836" grid="1" gridSize="10" guides="1" tooltips="1" connect="1" arrows="1" fold="1" page="1" pageScale="1" pageWidth="827" pageHeight="1169" math="0" shadow="0">
      <root>
        <mxCell id="0" />
        <mxCell id="1" parent="0" />
        <mxCell id="BFRW2EQyguHSd1APBZoG-1" value="&amp;lt;&amp;lt;interface&amp;gt;&amp;gt;&lt;br style=&quot;border-color: var(--border-color);&quot;&gt;&lt;b style=&quot;border-color: var(--border-color);&quot;&gt;Builder&lt;/b&gt;" style="swimlane;fontStyle=0;childLayout=stackLayout;horizontal=1;startSize=40;fillColor=none;horizontalStack=0;resizeParent=1;resizeParentMax=0;resizeLast=0;collapsible=1;marginBottom=0;whiteSpace=wrap;html=1;" vertex="1" parent="1">
          <mxGeometry x="160" y="110" width="200" height="118" as="geometry" />
        </mxCell>
        <mxCell id="BFRW2EQyguHSd1APBZoG-2" value="+&amp;nbsp;buildBasicAttributes(&lt;span style=&quot;background-color: initial;&quot;&gt;)&lt;/span&gt;" style="text;strokeColor=none;fillColor=none;align=left;verticalAlign=top;spacingLeft=4;spacingRight=4;overflow=hidden;rotatable=0;points=[[0,0.5],[1,0.5]];portConstraint=eastwest;whiteSpace=wrap;html=1;" vertex="1" parent="BFRW2EQyguHSd1APBZoG-1">
          <mxGeometry y="40" width="200" height="26" as="geometry" />
        </mxCell>
        <mxCell id="BFRW2EQyguHSd1APBZoG-3" value="+&amp;nbsp;buildSpecialAttributes&lt;span style=&quot;background-color: initial;&quot;&gt;(&lt;/span&gt;&lt;span style=&quot;background-color: initial;&quot;&gt;)&lt;/span&gt;" style="text;strokeColor=none;fillColor=none;align=left;verticalAlign=top;spacingLeft=4;spacingRight=4;overflow=hidden;rotatable=0;points=[[0,0.5],[1,0.5]];portConstraint=eastwest;whiteSpace=wrap;html=1;" vertex="1" parent="BFRW2EQyguHSd1APBZoG-1">
          <mxGeometry y="66" width="200" height="26" as="geometry" />
        </mxCell>
        <mxCell id="BFRW2EQyguHSd1APBZoG-4" value="+&amp;nbsp;getResult&lt;span style=&quot;background-color: initial;&quot;&gt;(&lt;/span&gt;&lt;span style=&quot;background-color: initial;&quot;&gt;): Champion&lt;/span&gt;" style="text;strokeColor=none;fillColor=none;align=left;verticalAlign=top;spacingLeft=4;spacingRight=4;overflow=hidden;rotatable=0;points=[[0,0.5],[1,0.5]];portConstraint=eastwest;whiteSpace=wrap;html=1;" vertex="1" parent="BFRW2EQyguHSd1APBZoG-1">
          <mxGeometry y="92" width="200" height="26" as="geometry" />
        </mxCell>
        <mxCell id="BFRW2EQyguHSd1APBZoG-5" value="MeleeBuilder" style="swimlane;fontStyle=1;align=center;verticalAlign=top;childLayout=stackLayout;horizontal=1;startSize=30;horizontalStack=0;resizeParent=1;resizeParentMax=0;resizeLast=0;collapsible=1;marginBottom=0;whiteSpace=wrap;html=1;" vertex="1" parent="1">
          <mxGeometry x="40" y="310" width="200" height="142" as="geometry" />
        </mxCell>
        <mxCell id="BFRW2EQyguHSd1APBZoG-6" value="- result&lt;span style=&quot;background-color: initial;&quot;&gt;: Melee&lt;/span&gt;Champion" style="text;strokeColor=none;fillColor=none;align=left;verticalAlign=top;spacingLeft=4;spacingRight=4;overflow=hidden;rotatable=0;points=[[0,0.5],[1,0.5]];portConstraint=eastwest;whiteSpace=wrap;html=1;" vertex="1" parent="BFRW2EQyguHSd1APBZoG-5">
          <mxGeometry y="30" width="200" height="26" as="geometry" />
        </mxCell>
        <mxCell id="BFRW2EQyguHSd1APBZoG-7" value="" style="line;strokeWidth=1;fillColor=none;align=left;verticalAlign=middle;spacingTop=-1;spacingLeft=3;spacingRight=3;rotatable=0;labelPosition=right;points=[];portConstraint=eastwest;strokeColor=inherit;" vertex="1" parent="BFRW2EQyguHSd1APBZoG-5">
          <mxGeometry y="56" width="200" height="8" as="geometry" />
        </mxCell>
        <mxCell id="BFRW2EQyguHSd1APBZoG-8" value="+&amp;nbsp;buildBasicAttributes(&lt;span style=&quot;background-color: initial;&quot;&gt;)&lt;/span&gt;" style="text;strokeColor=none;fillColor=none;align=left;verticalAlign=top;spacingLeft=4;spacingRight=4;overflow=hidden;rotatable=0;points=[[0,0.5],[1,0.5]];portConstraint=eastwest;whiteSpace=wrap;html=1;" vertex="1" parent="BFRW2EQyguHSd1APBZoG-5">
          <mxGeometry y="64" width="200" height="26" as="geometry" />
        </mxCell>
        <mxCell id="BFRW2EQyguHSd1APBZoG-9" value="+&amp;nbsp;buildSpecialAttributes&lt;span style=&quot;background-color: initial;&quot;&gt;(&lt;/span&gt;&lt;span style=&quot;background-color: initial;&quot;&gt;)&lt;/span&gt;" style="text;strokeColor=none;fillColor=none;align=left;verticalAlign=top;spacingLeft=4;spacingRight=4;overflow=hidden;rotatable=0;points=[[0,0.5],[1,0.5]];portConstraint=eastwest;whiteSpace=wrap;html=1;" vertex="1" parent="BFRW2EQyguHSd1APBZoG-5">
          <mxGeometry y="90" width="200" height="26" as="geometry" />
        </mxCell>
        <mxCell id="BFRW2EQyguHSd1APBZoG-10" value="+&amp;nbsp;getResult&lt;span style=&quot;background-color: initial;&quot;&gt;(&lt;/span&gt;&lt;span style=&quot;background-color: initial;&quot;&gt;):&amp;nbsp;&lt;/span&gt;MeleeChampion" style="text;strokeColor=none;fillColor=none;align=left;verticalAlign=top;spacingLeft=4;spacingRight=4;overflow=hidden;rotatable=0;points=[[0,0.5],[1,0.5]];portConstraint=eastwest;whiteSpace=wrap;html=1;" vertex="1" parent="BFRW2EQyguHSd1APBZoG-5">
          <mxGeometry y="116" width="200" height="26" as="geometry" />
        </mxCell>
        <mxCell id="BFRW2EQyguHSd1APBZoG-11" value="RangedBuilder" style="swimlane;fontStyle=1;align=center;verticalAlign=top;childLayout=stackLayout;horizontal=1;startSize=30;horizontalStack=0;resizeParent=1;resizeParentMax=0;resizeLast=0;collapsible=1;marginBottom=0;whiteSpace=wrap;html=1;" vertex="1" parent="1">
          <mxGeometry x="280" y="310" width="200" height="142" as="geometry" />
        </mxCell>
        <mxCell id="BFRW2EQyguHSd1APBZoG-12" value="- result&lt;span style=&quot;background-color: initial;&quot;&gt;: Ranged&lt;/span&gt;Champion" style="text;strokeColor=none;fillColor=none;align=left;verticalAlign=top;spacingLeft=4;spacingRight=4;overflow=hidden;rotatable=0;points=[[0,0.5],[1,0.5]];portConstraint=eastwest;whiteSpace=wrap;html=1;" vertex="1" parent="BFRW2EQyguHSd1APBZoG-11">
          <mxGeometry y="30" width="200" height="26" as="geometry" />
        </mxCell>
        <mxCell id="BFRW2EQyguHSd1APBZoG-13" value="" style="line;strokeWidth=1;fillColor=none;align=left;verticalAlign=middle;spacingTop=-1;spacingLeft=3;spacingRight=3;rotatable=0;labelPosition=right;points=[];portConstraint=eastwest;strokeColor=inherit;" vertex="1" parent="BFRW2EQyguHSd1APBZoG-11">
          <mxGeometry y="56" width="200" height="8" as="geometry" />
        </mxCell>
        <mxCell id="BFRW2EQyguHSd1APBZoG-14" value="+&amp;nbsp;buildBasicAttributes(&lt;span style=&quot;background-color: initial;&quot;&gt;)&lt;/span&gt;" style="text;strokeColor=none;fillColor=none;align=left;verticalAlign=top;spacingLeft=4;spacingRight=4;overflow=hidden;rotatable=0;points=[[0,0.5],[1,0.5]];portConstraint=eastwest;whiteSpace=wrap;html=1;" vertex="1" parent="BFRW2EQyguHSd1APBZoG-11">
          <mxGeometry y="64" width="200" height="26" as="geometry" />
        </mxCell>
        <mxCell id="BFRW2EQyguHSd1APBZoG-15" value="+&amp;nbsp;buildSpecialAttributes&lt;span style=&quot;background-color: initial;&quot;&gt;(&lt;/span&gt;&lt;span style=&quot;background-color: initial;&quot;&gt;)&lt;/span&gt;" style="text;strokeColor=none;fillColor=none;align=left;verticalAlign=top;spacingLeft=4;spacingRight=4;overflow=hidden;rotatable=0;points=[[0,0.5],[1,0.5]];portConstraint=eastwest;whiteSpace=wrap;html=1;" vertex="1" parent="BFRW2EQyguHSd1APBZoG-11">
          <mxGeometry y="90" width="200" height="26" as="geometry" />
        </mxCell>
        <mxCell id="BFRW2EQyguHSd1APBZoG-16" value="+&amp;nbsp;getResult&lt;span style=&quot;background-color: initial;&quot;&gt;(&lt;/span&gt;&lt;span style=&quot;background-color: initial;&quot;&gt;):&amp;nbsp;&lt;/span&gt;RangedChampion" style="text;strokeColor=none;fillColor=none;align=left;verticalAlign=top;spacingLeft=4;spacingRight=4;overflow=hidden;rotatable=0;points=[[0,0.5],[1,0.5]];portConstraint=eastwest;whiteSpace=wrap;html=1;" vertex="1" parent="BFRW2EQyguHSd1APBZoG-11">
          <mxGeometry y="116" width="200" height="26" as="geometry" />
        </mxCell>
        <mxCell id="BFRW2EQyguHSd1APBZoG-17" value="" style="endArrow=block;dashed=1;endFill=0;endSize=12;html=1;rounded=0;exitX=0.5;exitY=0;exitDx=0;exitDy=0;entryX=0.5;entryY=1;entryDx=0;entryDy=0;" edge="1" parent="1" source="BFRW2EQyguHSd1APBZoG-5" target="BFRW2EQyguHSd1APBZoG-1">
          <mxGeometry width="160" relative="1" as="geometry">
            <mxPoint x="30" y="354" as="sourcePoint" />
            <mxPoint x="260" y="240" as="targetPoint" />
            <Array as="points">
              <mxPoint x="140" y="270" />
              <mxPoint x="260" y="270" />
            </Array>
          </mxGeometry>
        </mxCell>
        <mxCell id="BFRW2EQyguHSd1APBZoG-18" value="" style="endArrow=block;dashed=1;endFill=0;endSize=12;html=1;rounded=0;exitX=0.5;exitY=0;exitDx=0;exitDy=0;entryX=0.5;entryY=1;entryDx=0;entryDy=0;" edge="1" parent="1" source="BFRW2EQyguHSd1APBZoG-11">
          <mxGeometry width="160" relative="1" as="geometry">
            <mxPoint x="140" y="310" as="sourcePoint" />
            <mxPoint x="260" y="228" as="targetPoint" />
            <Array as="points">
              <mxPoint x="380" y="270" />
              <mxPoint x="260" y="270" />
            </Array>
          </mxGeometry>
        </mxCell>
        <mxCell id="BFRW2EQyguHSd1APBZoG-19" value="" style="endArrow=open;endFill=1;endSize=12;html=1;rounded=0;" edge="1" parent="1">
          <mxGeometry width="160" relative="1" as="geometry">
            <mxPoint x="139.92000000000007" y="452" as="sourcePoint" />
            <mxPoint x="140" y="500" as="targetPoint" />
            <Array as="points" />
          </mxGeometry>
        </mxCell>
        <mxCell id="BFRW2EQyguHSd1APBZoG-20" value="&lt;b&gt;Melee&lt;span style=&quot;text-align: left;&quot;&gt;Champion&lt;/span&gt;&lt;/b&gt;" style="html=1;whiteSpace=wrap;" vertex="1" parent="1">
          <mxGeometry x="80" y="500" width="120" height="30" as="geometry" />
        </mxCell>
        <mxCell id="BFRW2EQyguHSd1APBZoG-21" value="" style="endArrow=open;endFill=1;endSize=12;html=1;rounded=0;" edge="1" parent="1">
          <mxGeometry width="160" relative="1" as="geometry">
            <mxPoint x="379.9200000000001" y="452" as="sourcePoint" />
            <mxPoint x="380" y="500" as="targetPoint" />
            <Array as="points" />
          </mxGeometry>
        </mxCell>
        <mxCell id="BFRW2EQyguHSd1APBZoG-22" value="&lt;b&gt;Ranged&lt;span style=&quot;text-align: left;&quot;&gt;Champion&lt;/span&gt;&lt;/b&gt;" style="html=1;whiteSpace=wrap;" vertex="1" parent="1">
          <mxGeometry x="320" y="500" width="120" height="30" as="geometry" />
        </mxCell>
        <mxCell id="BFRW2EQyguHSd1APBZoG-23" value="Champion" style="swimlane;fontStyle=1;align=center;verticalAlign=top;childLayout=stackLayout;horizontal=1;startSize=30;horizontalStack=0;resizeParent=1;resizeParentMax=0;resizeLast=0;collapsible=1;marginBottom=0;whiteSpace=wrap;html=1;" vertex="1" parent="1">
          <mxGeometry x="480" y="110" width="240" height="168" as="geometry" />
        </mxCell>
        <mxCell id="BFRW2EQyguHSd1APBZoG-24" value="-&amp;nbsp;builder&lt;span style=&quot;background-color: initial;&quot;&gt;:&amp;nbsp;Builder*&lt;/span&gt;" style="text;strokeColor=none;fillColor=none;align=left;verticalAlign=top;spacingLeft=4;spacingRight=4;overflow=hidden;rotatable=0;points=[[0,0.5],[1,0.5]];portConstraint=eastwest;whiteSpace=wrap;html=1;" vertex="1" parent="BFRW2EQyguHSd1APBZoG-23">
          <mxGeometry y="30" width="240" height="26" as="geometry" />
        </mxCell>
        <mxCell id="BFRW2EQyguHSd1APBZoG-25" value="&lt;b&gt;...&lt;/b&gt;" style="text;strokeColor=none;fillColor=none;align=left;verticalAlign=top;spacingLeft=4;spacingRight=4;overflow=hidden;rotatable=0;points=[[0,0.5],[1,0.5]];portConstraint=eastwest;whiteSpace=wrap;html=1;" vertex="1" parent="BFRW2EQyguHSd1APBZoG-23">
          <mxGeometry y="56" width="240" height="26" as="geometry" />
        </mxCell>
        <mxCell id="BFRW2EQyguHSd1APBZoG-26" value="" style="line;strokeWidth=1;fillColor=none;align=left;verticalAlign=middle;spacingTop=-1;spacingLeft=3;spacingRight=3;rotatable=0;labelPosition=right;points=[];portConstraint=eastwest;strokeColor=inherit;" vertex="1" parent="BFRW2EQyguHSd1APBZoG-23">
          <mxGeometry y="82" width="240" height="8" as="geometry" />
        </mxCell>
        <mxCell id="BFRW2EQyguHSd1APBZoG-27" value="+&amp;nbsp;changeBuilder&lt;span style=&quot;background-color: initial;&quot;&gt;(newBuilder: Builder*&lt;/span&gt;&lt;span style=&quot;background-color: initial;&quot;&gt;)&lt;/span&gt;" style="text;strokeColor=none;fillColor=none;align=left;verticalAlign=top;spacingLeft=4;spacingRight=4;overflow=hidden;rotatable=0;points=[[0,0.5],[1,0.5]];portConstraint=eastwest;whiteSpace=wrap;html=1;" vertex="1" parent="BFRW2EQyguHSd1APBZoG-23">
          <mxGeometry y="90" width="240" height="26" as="geometry" />
        </mxCell>
        <mxCell id="BFRW2EQyguHSd1APBZoG-28" value="+&amp;nbsp;build&lt;span style=&quot;background-color: initial;&quot;&gt;(): Champion&lt;/span&gt;" style="text;strokeColor=none;fillColor=none;align=left;verticalAlign=top;spacingLeft=4;spacingRight=4;overflow=hidden;rotatable=0;points=[[0,0.5],[1,0.5]];portConstraint=eastwest;whiteSpace=wrap;html=1;" vertex="1" parent="BFRW2EQyguHSd1APBZoG-23">
          <mxGeometry y="116" width="240" height="26" as="geometry" />
        </mxCell>
        <mxCell id="BFRW2EQyguHSd1APBZoG-29" value="&lt;b&gt;...&lt;/b&gt;" style="text;strokeColor=none;fillColor=none;align=left;verticalAlign=top;spacingLeft=4;spacingRight=4;overflow=hidden;rotatable=0;points=[[0,0.5],[1,0.5]];portConstraint=eastwest;whiteSpace=wrap;html=1;" vertex="1" parent="BFRW2EQyguHSd1APBZoG-23">
          <mxGeometry y="142" width="240" height="26" as="geometry" />
        </mxCell>
        <mxCell id="BFRW2EQyguHSd1APBZoG-30" value="" style="endArrow=open;endFill=1;endSize=12;html=1;rounded=0;" edge="1" parent="1">
          <mxGeometry width="160" relative="1" as="geometry">
            <mxPoint x="480" y="150" as="sourcePoint" />
            <mxPoint x="360" y="150" as="targetPoint" />
            <Array as="points" />
          </mxGeometry>
        </mxCell>
        <mxCell id="BFRW2EQyguHSd1APBZoG-31" value="&lt;b&gt;Client&lt;/b&gt;" style="html=1;whiteSpace=wrap;" vertex="1" parent="1">
          <mxGeometry x="380" y="40" width="80" height="30" as="geometry" />
        </mxCell>
        <mxCell id="BFRW2EQyguHSd1APBZoG-32" value="" style="endArrow=open;endFill=1;endSize=12;html=1;rounded=0;exitX=1;exitY=0.5;exitDx=0;exitDy=0;entryX=0.5;entryY=0;entryDx=0;entryDy=0;" edge="1" parent="1" source="BFRW2EQyguHSd1APBZoG-31" target="BFRW2EQyguHSd1APBZoG-23">
          <mxGeometry width="160" relative="1" as="geometry">
            <mxPoint x="480" y="120" as="sourcePoint" />
            <mxPoint x="560" y="55" as="targetPoint" />
            <Array as="points">
              <mxPoint x="600" y="55" />
            </Array>
          </mxGeometry>
        </mxCell>
        <mxCell id="BFRW2EQyguHSd1APBZoG-33" value="" style="endArrow=open;endSize=12;dashed=1;html=1;rounded=0;exitX=0;exitY=0.5;exitDx=0;exitDy=0;entryX=0.3;entryY=0;entryDx=0;entryDy=0;entryPerimeter=0;" edge="1" parent="1" source="BFRW2EQyguHSd1APBZoG-31" target="BFRW2EQyguHSd1APBZoG-5">
          <mxGeometry width="160" relative="1" as="geometry">
            <mxPoint x="360" y="60" as="sourcePoint" />
            <mxPoint x="100" y="300" as="targetPoint" />
            <Array as="points">
              <mxPoint x="100" y="55" />
            </Array>
          </mxGeometry>
        </mxCell>
        <mxCell id="BFRW2EQyguHSd1APBZoG-34" value="" style="endArrow=open;endSize=12;dashed=1;html=1;rounded=0;exitX=0.5;exitY=1;exitDx=0;exitDy=0;entryX=0.7;entryY=0;entryDx=0;entryDy=0;entryPerimeter=0;" edge="1" parent="1" source="BFRW2EQyguHSd1APBZoG-31" target="BFRW2EQyguHSd1APBZoG-11">
          <mxGeometry width="160" relative="1" as="geometry">
            <mxPoint x="410" y="65" as="sourcePoint" />
            <mxPoint x="420" y="300" as="targetPoint" />
            <Array as="points" />
          </mxGeometry>
        </mxCell>
      </root>
    </mxGraphModel>
  </diagram>
</mxfile>
